TITLE ""
FILE "Disc6Track19.mp3" MP3
  TRACK 01 AUDIO
    TITLE "Disc6Track19_01"
    INDEX 01 00:00:00
  TRACK 02 AUDIO
    TITLE "Disc6Track19_02"
    INDEX 01 00:03:50
  TRACK 03 AUDIO
    TITLE "Disc6Track19_03"
    INDEX 01 00:04:04
  TRACK 04 AUDIO
    TITLE "Disc6Track19_04"
    INDEX 01 00:05:08
  TRACK 05 AUDIO
    TITLE "Disc6Track19_05"
    INDEX 01 00:09:03
  TRACK 06 AUDIO
    TITLE "Disc6Track19_06"
    INDEX 01 00:10:03
  TRACK 07 AUDIO
    TITLE "Disc6Track19_07"
    INDEX 01 00:14:10
  TRACK 08 AUDIO
    TITLE "Disc6Track19_08"
    INDEX 01 00:14:42
  TRACK 09 AUDIO
    TITLE "Disc6Track19_09"
    INDEX 01 00:15:59
  TRACK 10 AUDIO
    TITLE "Disc6Track19_10"
    INDEX 01 00:16:64
  TRACK 11 AUDIO
    TITLE "Disc6Track19_11"
    INDEX 01 00:18:06
  TRACK 12 AUDIO
    TITLE "Disc6Track19_12"
    INDEX 01 00:20:19
  TRACK 13 AUDIO
    TITLE "Disc6Track19_13"
    INDEX 01 00:20:50
  TRACK 14 AUDIO
    TITLE "Disc6Track19_14"
    INDEX 01 00:21:59
  TRACK 15 AUDIO
    TITLE "Disc6Track19_15"
    INDEX 01 00:26:18
  TRACK 16 AUDIO
    TITLE "Disc6Track19_16"
    INDEX 01 00:27:25
  TRACK 17 AUDIO
    TITLE "Disc6Track19_17"
    INDEX 01 00:32:01
  TRACK 18 AUDIO
    TITLE "Disc6Track19_18"
    INDEX 01 00:32:24
  TRACK 19 AUDIO
    TITLE "Disc6Track19_19"
    INDEX 01 00:33:43
  TRACK 20 AUDIO
    TITLE "Disc6Track19_20"
    INDEX 01 00:36:26
  TRACK 21 AUDIO
    TITLE "Disc6Track19_21"
    INDEX 01 00:37:45
  TRACK 22 AUDIO
    TITLE "Disc6Track19_22"
    INDEX 01 00:42:34
  TRACK 23 AUDIO
    TITLE "Disc6Track19_23"
    INDEX 01 00:42:64
  TRACK 24 AUDIO
    TITLE "Disc6Track19_24"
    INDEX 01 00:44:10
  TRACK 25 AUDIO
    TITLE "Disc6Track19_25"
    INDEX 01 00:46:44
  TRACK 26 AUDIO
    TITLE "Disc6Track19_26"
    INDEX 01 00:47:65
  TRACK 27 AUDIO
    TITLE "Disc6Track19_27"
    INDEX 01 00:51:59
  TRACK 28 AUDIO
    TITLE "Disc6Track19_28"
    INDEX 01 00:52:13
  TRACK 29 AUDIO
    TITLE "Disc6Track19_29"
    INDEX 01 00:53:24
  TRACK 30 AUDIO
    TITLE "Disc6Track19_30"
    INDEX 01 00:57:10
  TRACK 31 AUDIO
    TITLE "Disc6Track19_31"
    INDEX 01 00:58:23
  TRACK 32 AUDIO
    TITLE "Disc6Track19_32"
    INDEX 01 01:03:72
  TRACK 33 AUDIO
    TITLE "Disc6Track19_33"
    INDEX 01 01:04:26
  TRACK 34 AUDIO
    TITLE "Disc6Track19_34"
    INDEX 01 01:05:29
  TRACK 35 AUDIO
    TITLE "Disc6Track19_35"
    INDEX 01 01:07:30
  TRACK 36 AUDIO
    TITLE "Disc6Track19_36"
    INDEX 01 01:08:32
  TRACK 37 AUDIO
    TITLE "Disc6Track19_37"
    INDEX 01 01:14:38
  TRACK 38 AUDIO
    TITLE "Disc6Track19_38"
    INDEX 01 01:14:69
  TRACK 39 AUDIO
    TITLE "Disc6Track19_39"
    INDEX 01 01:16:12
  TRACK 40 AUDIO
    TITLE "Disc6Track19_40"
    INDEX 01 01:19:59
  TRACK 41 AUDIO
    TITLE "Disc6Track19_41"
    INDEX 01 01:20:74
  TRACK 42 AUDIO
    TITLE "Disc6Track19_42"
    INDEX 01 01:27:25
  TRACK 43 AUDIO
    TITLE "Disc6Track19_43"
    INDEX 01 01:27:54
  TRACK 44 AUDIO
    TITLE "Disc6Track19_44"
    INDEX 01 01:28:62
  TRACK 45 AUDIO
    TITLE "Disc6Track19_45"
    INDEX 01 01:30:74
  TRACK 46 AUDIO
    TITLE "Disc6Track19_46"
    INDEX 01 01:32:07
  TRACK 47 AUDIO
    TITLE "Disc6Track19_47"
    INDEX 01 01:35:07
  TRACK 48 AUDIO
    TITLE "Disc6Track19_48"
    INDEX 01 01:35:36
  TRACK 49 AUDIO
    TITLE "Disc6Track19_49"
    INDEX 01 01:36:44
  TRACK 50 AUDIO
    TITLE "Disc6Track19_50"
    INDEX 01 01:38:50
  TRACK 51 AUDIO
    TITLE "Disc6Track19_51"
    INDEX 01 01:39:56
  TRACK 52 AUDIO
    TITLE "Disc6Track19_52"
    INDEX 01 01:45:11
  TRACK 53 AUDIO
    TITLE "Disc6Track19_53"
    INDEX 01 01:45:45
  TRACK 54 AUDIO
    TITLE "Disc6Track19_54"
    INDEX 01 01:46:58
  TRACK 55 AUDIO
    TITLE "Disc6Track19_55"
    INDEX 01 01:50:06
  TRACK 56 AUDIO
    TITLE "Disc6Track19_56"
    INDEX 01 01:51:16
  TRACK 57 AUDIO
    TITLE "Disc6Track19_57"
    INDEX 01 01:55:08
  TRACK 58 AUDIO
    TITLE "Disc6Track19_58"
    INDEX 01 01:55:35
  TRACK 59 AUDIO
    TITLE "Disc6Track19_59"
    INDEX 01 01:56:54
  TRACK 60 AUDIO
    TITLE "Disc6Track19_60"
    INDEX 01 01:58:47
  TRACK 61 AUDIO
    TITLE "Disc6Track19_61"
    INDEX 01 01:59:62
  TRACK 62 AUDIO
    TITLE "Disc6Track19_62"
    INDEX 01 02:01:63
  TRACK 63 AUDIO
    TITLE "Disc6Track19_63"
    INDEX 01 02:02:18
  TRACK 64 AUDIO
    TITLE "Disc6Track19_64"
    INDEX 01 02:03:29
  TRACK 65 AUDIO
    TITLE "Disc6Track19_65"
    INDEX 01 02:07:27
  TRACK 66 AUDIO
    TITLE "Disc6Track19_66"
    INDEX 01 02:08:34
  TRACK 67 AUDIO
    TITLE "Disc6Track19_67"
    INDEX 01 02:11:24
